<?xml version="1.0" encoding="UTF-8" standalone="no"?>
<svg width="90px" height="92px" viewBox="0 0 90 92" version="1.1" xmlns="http://www.w3.org/2000/svg" xmlns:xlink="http://www.w3.org/1999/xlink">
    <!-- Generator: Sketch 43.1 (39012) - http://www.bohemiancoding.com/sketch -->
    <title>Artboard</title>
    <desc>Created with Sketch.</desc>
    <defs></defs>
    <g id="Page-1" stroke="none" stroke-width="1" fill="none" fill-rule="evenodd">
        <g id="Artboard" fill-rule="nonzero" fill="#363636">
            <g id="if_quote-left_1608425" transform="translate(31.000000, 35.000000)">
                <path d="M14.3076923,15.3636364 L14.3076923,22.4545455 C14.3076923,23.4393939 13.9599359,24.2765152 13.2644231,24.9659091 C12.5689103,25.655303 11.724359,26 10.7307692,26 L3.57692308,26 C2.58333333,26 1.73878205,25.655303 1.04326923,24.9659091 C0.34775641,24.2765152 0,23.4393939 0,22.4545455 L0,9.45454545 C0,8.17424242 0.251502404,6.95241477 0.754507212,5.7890625 C1.25751202,4.62571023 1.9375,3.61931818 2.79447115,2.76988636 C3.65144231,1.92045455 4.66676683,1.24644886 5.84044471,0.747869318 C7.0141226,0.249289773 8.24679487,0 9.53846154,0 L10.7307692,0 C11.0536859,0 11.333133,0.116950758 11.5691106,0.350852273 C11.8050881,0.584753788 11.9230769,0.861742424 11.9230769,1.18181818 L11.9230769,3.54545455 C11.9230769,3.8655303 11.8050881,4.14251894 11.5691106,4.37642045 C11.333133,4.61032197 11.0536859,4.72727273 10.7307692,4.72727273 L9.53846154,4.72727273 C8.22195513,4.72727273 7.09795673,5.18892045 6.16646635,6.11221591 C5.23497596,7.03551136 4.76923077,8.14962121 4.76923077,9.45454545 L4.76923077,10.0454545 C4.76923077,10.5378788 4.94310897,10.9564394 5.29086538,11.3011364 C5.63862179,11.6458333 6.06089744,11.8181818 6.55769231,11.8181818 L10.7307692,11.8181818 C11.724359,11.8181818 12.5689103,12.1628788 13.2644231,12.8522727 C13.9599359,13.5416667 14.3076923,14.3787879 14.3076923,15.3636364 Z M31,15.3636364 L31,22.4545455 C31,23.4393939 30.6522436,24.2765152 29.9567308,24.9659091 C29.2612179,25.655303 28.4166667,26 27.4230769,26 L20.2692308,26 C19.275641,26 18.4310897,25.655303 17.7355769,24.9659091 C17.0400641,24.2765152 16.6923077,23.4393939 16.6923077,22.4545455 L16.6923077,9.45454545 C16.6923077,8.17424242 16.9438101,6.95241477 17.4468149,5.7890625 C17.9498197,4.62571023 18.6298077,3.61931818 19.4867788,2.76988636 C20.34375,1.92045455 21.3590745,1.24644886 22.5327524,0.747869318 C23.7064303,0.249289773 24.9391026,0 26.2307692,0 L27.4230769,0 C27.7459936,0 28.0254407,0.116950758 28.2614183,0.350852273 C28.4973958,0.584753788 28.6153846,0.861742424 28.6153846,1.18181818 L28.6153846,3.54545455 C28.6153846,3.8655303 28.4973958,4.14251894 28.2614183,4.37642045 C28.0254407,4.61032197 27.7459936,4.72727273 27.4230769,4.72727273 L26.2307692,4.72727273 C24.9142628,4.72727273 23.7902644,5.18892045 22.858774,6.11221591 C21.9272837,7.03551136 21.4615385,8.14962121 21.4615385,9.45454545 L21.4615385,10.0454545 C21.4615385,10.5378788 21.6354167,10.9564394 21.9831731,11.3011364 C22.3309295,11.6458333 22.7532051,11.8181818 23.25,11.8181818 L27.4230769,11.8181818 C28.4166667,11.8181818 29.2612179,12.1628788 29.9567308,12.8522727 C30.6522436,13.5416667 31,14.3787879 31,15.3636364 Z" id="Shape"></path>
            </g>
        </g>
    </g>
</svg>